<mxfile host="www.draw.io" modified="2019-12-07T02:08:01.325Z" agent="Mozilla/5.0 (Windows NT 6.3; Win64; x64) AppleWebKit/537.36 (KHTML, like Gecko) Chrome/78.0.3904.108 Safari/537.36" etag="Ir8UykPKyy7cFXvtHoG9" version="12.3.8" type="github" pages="1">
  <diagram id="VZeaWhMBAQeD2p9bLkKl" name="Page-1">
    <mxGraphModel dx="764" dy="317" grid="1" gridSize="10" guides="1" tooltips="1" connect="1" arrows="1" fold="1" page="1" pageScale="1" pageWidth="850" pageHeight="1100" math="0" shadow="0">
      <root>
        <mxCell id="0"/>
        <mxCell id="1" parent="0"/>
        <mxCell id="mOZOKWReAH97ca2ln4TD-1" value="&lt;div style=&quot;box-sizing: border-box ; width: 100% ; background: #e4e4e4 ; padding: 2px&quot;&gt;patient_table&lt;/div&gt;&lt;table style=&quot;width: 100% ; font-size: 1em&quot; cellpadding=&quot;2&quot; cellspacing=&quot;0&quot;&gt;&lt;tbody&gt;&lt;tr&gt;&lt;td&gt;id&lt;br&gt;patient_id&lt;br&gt;date&lt;br&gt;full_name&lt;br&gt;age&lt;br&gt;sex&lt;br&gt;occupation&lt;br&gt;barangay&lt;br&gt;purok&lt;br&gt;allergies&lt;br&gt;pregnant_bool&lt;br&gt;&lt;br&gt;&lt;/td&gt;&lt;td&gt;&lt;/td&gt;&lt;/tr&gt;&lt;tr&gt;&lt;td&gt;&lt;/td&gt;&lt;td&gt;&lt;br&gt;&lt;/td&gt;&lt;/tr&gt;&lt;/tbody&gt;&lt;/table&gt;" style="verticalAlign=top;align=left;overflow=fill;html=1;" vertex="1" parent="1">
          <mxGeometry x="170" y="120" width="180" height="180" as="geometry"/>
        </mxCell>
        <mxCell id="mOZOKWReAH97ca2ln4TD-3" value="&lt;div style=&quot;box-sizing: border-box ; width: 100% ; background: #e4e4e4 ; padding: 2px&quot;&gt;comorbidities_table&lt;/div&gt;id - PK&lt;br&gt;patient_id - FK&lt;br&gt;comorbidities&lt;br&gt;" style="verticalAlign=top;align=left;overflow=fill;html=1;" vertex="1" parent="1">
          <mxGeometry x="380" y="120" width="180" height="90" as="geometry"/>
        </mxCell>
        <mxCell id="mOZOKWReAH97ca2ln4TD-4" value="&lt;div style=&quot;box-sizing: border-box ; width: 100% ; background: #e4e4e4 ; padding: 2px&quot;&gt;teeth_image_table&lt;/div&gt;&lt;table style=&quot;width: 100% ; font-size: 1em&quot; cellpadding=&quot;2&quot; cellspacing=&quot;0&quot;&gt;&lt;tbody&gt;&lt;tr&gt;&lt;td&gt;id - PK&lt;br&gt;patient_id - FK&lt;br&gt;upper_occlusal&lt;br&gt;front_face&lt;br&gt;lower_occlusal&lt;br&gt;right_buccal&lt;br&gt;front&lt;br&gt;left_buccal&lt;/td&gt;&lt;td&gt;&lt;/td&gt;&lt;/tr&gt;&lt;/tbody&gt;&lt;/table&gt;" style="verticalAlign=top;align=left;overflow=fill;html=1;" vertex="1" parent="1">
          <mxGeometry x="600" y="120" width="180" height="140" as="geometry"/>
        </mxCell>
      </root>
    </mxGraphModel>
  </diagram>
</mxfile>
